<?xml version="1.0" encoding="utf-8"?>
<!-- Generator: Adobe Illustrator 22.0.1, SVG Export Plug-In . SVG Version: 6.00 Build 0)  -->
<svg version="1.1" id="Layer_1" xmlns="http://www.w3.org/2000/svg" xmlns:xlink="http://www.w3.org/1999/xlink" x="0px" y="0px"
	 viewBox="0 0 100 100" style="enable-background:new 0 0 100 100;" xml:space="preserve">
<style type="text/css">
	.st0{fill:#0D5E8C;}
	.st1{fill:#0071BC;}
	.st2{fill:#FFFFFF;}
	.st3{fill:#2B2B2B;}
	.st4{fill:#3498DB;}
	.st5{fill-rule:evenodd;clip-rule:evenodd;fill:#3498DB;}
	.st6{fill-rule:evenodd;clip-rule:evenodd;fill:#FFFFFF;}
	.st7{fill:#ECF0F1;}
	.st8{fill-rule:evenodd;clip-rule:evenodd;fill:#ECF0F1;}
	.st9{fill-rule:evenodd;clip-rule:evenodd;fill:#F5F7F8;}
	.st10{fill-rule:evenodd;clip-rule:evenodd;fill:#2980B9;}
	.st11{fill:#5B9500;}
	.st12{fill:#12935D;}
	.st13{fill:#6BBD8B;}
	.st14{fill:#049FA4;}
	.st15{fill:#3BB5F0;}
	.st16{fill:#78C8FF;}
	.st17{fill:#3EB8FF;}
	.st18{fill:#184223;}
	.st19{fill:#022906;}
	.st20{fill:#076E5E;}
	.st21{fill:#0A413C;}
	.st22{fill:#C2D400;}
	.st23{fill:#8B9504;}
	.st24{fill:#0096E5;}
	.st25{fill:#008EDA;}
	.st26{fill:#136050;}
	.st27{fill:#7BBC00;}
	.st28{fill:#95BB00;}
	.st29{fill:#3A9B92;}
	.st30{fill:#00867E;}
	.st31{fill:none;stroke:#000000;stroke-width:1.7961;stroke-miterlimit:10;}
	.st32{fill:#34495E;}
	.st33{fill:#99A3A8;}
	.st34{fill:none;stroke:#000000;stroke-linecap:square;stroke-linejoin:round;stroke-miterlimit:10;stroke-dasharray:0,2;}
	.st35{fill:none;stroke:#F15354;stroke-width:5;stroke-miterlimit:10;}
	.st36{fill:#DEE1E3;}
	.st37{fill:#F15354;}
	.st38{fill:none;}
	.st39{font-family:'Prompt-Light';}
	.st40{font-size:12px;}
	.st41{fill:none;stroke:#F15354;stroke-width:7;stroke-miterlimit:10;}
	.st42{fill-rule:evenodd;clip-rule:evenodd;fill:#DEE1E3;}
	.st43{fill-rule:evenodd;clip-rule:evenodd;fill:#FFFFFF;stroke:#ECF0F1;stroke-miterlimit:10;}
	.st44{fill:none;stroke:#2B2B2B;stroke-width:2.6612;stroke-miterlimit:10;}
	.st45{fill:#2C3E50;}
	.st46{opacity:0.3;fill:#DEE1E3;}
	.st47{fill:none;stroke:#DEE1E3;stroke-width:2.6711;stroke-miterlimit:10;}
	.st48{fill:none;stroke:#BDC3C7;stroke-width:2;stroke-miterlimit:10;}
	.st49{fill:none;stroke:#E67E22;stroke-width:4;stroke-miterlimit:10;}
	.st50{fill:#BDC3C7;}
	.st51{fill:#E67E22;}
	.st52{fill:#F4BD19;}
	.st53{fill:#3CBEB1;}
	.st54{fill:#E9478C;}
	.st55{fill:#2C458F;}
	.st56{fill:#95C63D;}
	.st57{fill:#176655;}
</style>
<rect y="75.8" class="st38" width="100" height="24.5"/>
<g>
	<g>
		<path class="st1" d="M60.3,31.6c0.5,0,10.8,0.2,10.9,0.2h9.8c3.3,0,5.5-2.7,4.9-5.9l-1.7-10c-0.5-3.2-1.9-5.9-2.9-5.9
			s-1.9,2.6-1.9,5.9v2.6c0,3.3-2.5,5.6-5.8,5.6H61.2"/>
	</g>
	<g>
		<path class="st1" d="M38.8,31.8H18.9c-3.3,0-5.5-2.7-4.9-5.9l1.7-10c0.5-3.2,1.8-5.9,2.8-5.9c1,0,1.9,2.6,1.9,5.9v2.6
			c0,3.3,2.6,5.6,5.8,5.6h12.6"/>
	</g>
	<path class="st2" d="M76.3,41.6c0-4.2-2.6-7.9-6.5-9.3c0.2-0.9,0.2-1.8,0.2-2.7c0-7.8-6.4-14.2-14.2-14.2c-4.5,0-8.8,2.2-11.5,5.9
		c-1.3-1-2.9-1.6-4.6-1.6c-4.1,0-7.5,3.4-7.5,7.5c0,0.9,0.2,1.8,0.5,2.6c-3.9,1.4-6.6,5.1-6.6,9.3c0,4.2,2.6,7.9,6.6,9.3
		c-0.2,0.9-0.2,1.8-0.2,2.7c0,7.8,6.4,14.1,14.1,14.1c4.6,0,8.8-2.2,11.5-5.9c1.3,1,3,1.6,4.6,1.6c4.1,0,7.5-3.4,7.5-7.5
		c0-0.9-0.2-1.8-0.5-2.6C73.6,49.6,76.3,45.8,76.3,41.6L76.3,41.6z"/>
	<path class="st52" d="M45.7,36.9L56.9,42l11.3-9.9c0.2-0.8,0.2-1.7,0.2-2.5c0-7-5.7-12.6-12.6-12.6c-4.2,0-8.1,2-10.4,5.5l-1.9,9.8
		L45.7,36.9L45.7,36.9z"/>
	<path class="st53" d="M34.1,48.8c-0.2,0.8-0.2,1.7-0.2,2.5c0,7,5.7,12.7,12.7,12.7c4.2,0,8.1-2.1,10.5-5.5l1.8-9.8l-2.5-4.8
		l-11.2-5.1L34.1,48.8L34.1,48.8z"/>
	<path class="st54" d="M34,29.4l7.7,1.8l1.7-8.7c-1.1-0.8-2.3-1.2-3.7-1.2c-3.3,0-6.1,2.7-6.1,6.1C33.6,28,33.8,28.7,34,29.4
		L34,29.4z"/>
	<path class="st55" d="M33.4,31.2c-3.4,1.1-5.8,4.4-5.8,8c0,3.5,2.2,6.7,5.5,7.9l10.8-9.8l-2-4.2L33.4,31.2L33.4,31.2z"/>
	<path class="st56" d="M59,58.4c1.1,0.8,2.3,1.3,3.6,1.3c3.3,0,6.1-2.7,6.1-6.1c0-0.7-0.1-1.4-0.4-2.1l-7.7-1.8L59,58.4L59,58.4z"/>
	<path class="st57" d="M60.5,47.7l8.4,2c3.4-1.1,5.8-4.4,5.8-8c0-3.5-2.2-6.6-5.5-7.9l-11.1,9.7L60.5,47.7L60.5,47.7z"/>
</g>
</svg>
