<?xml version="1.0" encoding="utf-8"?>
<!-- Generator: Adobe Illustrator 22.0.1, SVG Export Plug-In . SVG Version: 6.00 Build 0)  -->
<svg version="1.1" id="Layer_1" xmlns="http://www.w3.org/2000/svg" xmlns:xlink="http://www.w3.org/1999/xlink" x="0px" y="0px"
	 viewBox="0 0 100 100" style="enable-background:new 0 0 100 100;" xml:space="preserve">
<style type="text/css">
	.st0{fill:#0D5E8C;}
	.st1{fill:#0071BC;}
	.st2{fill:#FFFFFF;}
	.st3{fill:#2B2B2B;}
	.st4{fill:#3498DB;}
	.st5{fill-rule:evenodd;clip-rule:evenodd;fill:#3498DB;}
	.st6{fill-rule:evenodd;clip-rule:evenodd;fill:#FFFFFF;}
	.st7{fill:#ECF0F1;}
	.st8{fill-rule:evenodd;clip-rule:evenodd;fill:#ECF0F1;}
	.st9{fill-rule:evenodd;clip-rule:evenodd;fill:#F5F7F8;}
	.st10{fill-rule:evenodd;clip-rule:evenodd;fill:#2980B9;}
	.st11{fill:#5B9500;}
	.st12{fill:#12935D;}
	.st13{fill:#6BBD8B;}
	.st14{fill:#049FA4;}
	.st15{fill:#3BB5F0;}
	.st16{fill:#78C8FF;}
	.st17{fill:#3EB8FF;}
	.st18{fill:#184223;}
	.st19{fill:#022906;}
	.st20{fill:#076E5E;}
	.st21{fill:#0A413C;}
	.st22{fill:#C2D400;}
	.st23{fill:#8B9504;}
	.st24{fill:#0096E5;}
	.st25{fill:#008EDA;}
	.st26{fill:#136050;}
	.st27{fill:#7BBC00;}
	.st28{fill:#95BB00;}
	.st29{fill:#3A9B92;}
	.st30{fill:#00867E;}
	.st31{fill:none;stroke:#000000;stroke-width:1.7961;stroke-miterlimit:10;}
	.st32{fill:#34495E;}
	.st33{fill:#99A3A8;}
	.st34{fill:none;stroke:#000000;stroke-linecap:square;stroke-linejoin:round;stroke-miterlimit:10;stroke-dasharray:0,2;}
	.st35{fill:none;}
	.st36{font-family:'Prompt-Light';}
	.st37{font-size:12px;}
	.st38{fill:none;stroke:#F15354;stroke-width:5;stroke-miterlimit:10;}
	.st39{fill:#DEE1E3;}
	.st40{fill:#F15354;}
	.st41{fill:none;stroke:#F15354;stroke-width:7;stroke-miterlimit:10;}
	.st42{fill-rule:evenodd;clip-rule:evenodd;fill:#DEE1E3;}
	.st43{fill-rule:evenodd;clip-rule:evenodd;fill:none;}
	.st44{font-family:'Prompt-Thin';}
	.st45{font-size:14px;}
	.st46{fill-rule:evenodd;clip-rule:evenodd;fill:#FFFFFF;stroke:#ECF0F1;stroke-miterlimit:10;}
	.st47{fill:none;stroke:#2B2B2B;stroke-width:2.6612;stroke-miterlimit:10;}
	.st48{fill:#2C3E50;}
	.st49{opacity:0.3;fill:#DEE1E3;}
	.st50{fill:none;stroke:#DEE1E3;stroke-width:2.6711;stroke-miterlimit:10;}
	.st51{fill:none;stroke:#BDC3C7;stroke-width:2;stroke-miterlimit:10;}
	.st52{fill:none;stroke:#E67E22;stroke-width:4;stroke-miterlimit:10;}
	.st53{fill:#BDC3C7;}
	.st54{fill:#E67E22;}
</style>
<g>
	<rect x="0.2" y="76" class="st35" width="100" height="24.5"/>
	<text transform="matrix(1 0 0 1 35.5059 84.8609)" class="st32 st36 st37">Email</text>
</g>
<rect x="94.7" y="78.8" class="st43" width="27.5" height="24.8"/>
<text transform="matrix(1 0 0 1 102.054 89.1795)" class="st44 st45">@</text>
<g>
	<g>
		<path class="st5" d="M21.4,64.2c-0.6,0-1-0.4-1-1V31.3c0-0.3,0.2-0.7,0.5-0.8l28.3-18.1c0.2-0.1,0.4-0.2,0.5-0.2s0.4,0.1,0.5,0.2
			l28.3,18.1c0.3,0.2,0.5,0.5,0.5,0.8v31.9c0,0.6-0.4,1-1,1H21.4z"/>
		<path class="st4" d="M49.7,13.2l28.3,18.1v31.9H21.4V31.3L49.7,13.2 M49.7,11.2c-0.4,0-0.7,0.1-1.1,0.3L20.3,29.6
			c-0.6,0.4-0.9,1-0.9,1.7v31.9c0,1.1,0.9,2,2,2h56.7c1.1,0,2-0.9,2-2V31.3c0-0.7-0.3-1.3-0.9-1.7L50.8,11.5
			C50.5,11.3,50.1,11.2,49.7,11.2L49.7,11.2z"/>
	</g>
	<g>
		<path class="st6" d="M32.7,64.2c-0.6,0-1-0.4-1-1V18.4c0-0.6,0.4-1,1-1h34c0.6,0,1,0.4,1,1v44.8c0,0.6-0.4,1-1,1H32.7z"/>
		<path class="st4" d="M66.7,18.4v44.8h-34V18.4H66.7 M66.7,16.4h-34c-1.1,0-2,0.9-2,2v44.8c0,1.1,0.9,2,2,2h34c1.1,0,2-0.9,2-2
			V18.4C68.7,17.3,67.8,16.4,66.7,16.4L66.7,16.4z"/>
	</g>
	<g>
		<path class="st6" d="M21.4,64.2c-0.6,0-1-0.4-1-1V31.3c0-0.4,0.2-0.7,0.5-0.9c0.1-0.1,0.3-0.1,0.5-0.1c0.2,0,0.4,0.1,0.5,0.2
			l27.8,17.8l27.8-17.8c0.2-0.1,0.4-0.2,0.5-0.2c0.2,0,0.3,0,0.5,0.1c0.3,0.2,0.5,0.5,0.5,0.9v31.9c0,0.6-0.4,1-1,1H21.4z"/>
		<path class="st4" d="M78.1,31.3v31.9H21.4V31.3l28.3,18.1L78.1,31.3 M78.1,29.3c-0.4,0-0.7,0.1-1.1,0.3L49.7,47.1L22.5,29.6
			c-0.3-0.2-0.7-0.3-1.1-0.3c-0.3,0-0.7,0.1-1,0.2c-0.6,0.4-1,1-1,1.8v31.9c0,1.1,0.9,2,2,2h56.7c1.1,0,2-0.9,2-2V31.3
			c0-0.7-0.4-1.4-1-1.8C78.7,29.4,78.4,29.3,78.1,29.3L78.1,29.3z"/>
	</g>
	<g>
		<g>
			<path class="st6" d="M21.4,64.2c-0.1,0-0.3,0-0.4-0.1c-0.4-0.2-0.6-0.5-0.6-0.9V31.3c0-0.4,0.2-0.7,0.5-0.9
				c0.1-0.1,0.3-0.1,0.5-0.1c0.2,0,0.4,0.1,0.5,0.2l21.3,13.6c0.3,0.2,0.4,0.5,0.5,0.8s-0.1,0.6-0.3,0.8L22,64
				C21.9,64.1,21.6,64.2,21.4,64.2z"/>
			<path class="st4" d="M21.4,31.3L42.7,45L21.4,63.2V31.3 M21.4,29.3c-0.3,0-0.7,0.1-1,0.2c-0.6,0.4-1,1-1,1.8v31.9
				c0,0.8,0.5,1.5,1.2,1.8c0.3,0.1,0.6,0.2,0.8,0.2c0.5,0,0.9-0.2,1.3-0.5L44,46.5c0.5-0.4,0.7-1,0.7-1.7c0-0.6-0.4-1.2-0.9-1.5
				L22.5,29.6C22.1,29.4,21.8,29.3,21.4,29.3L21.4,29.3z"/>
		</g>
		<g>
			<path class="st6" d="M78.1,64.2c-0.2,0-0.5-0.1-0.7-0.2L56.1,45.7c-0.2-0.2-0.4-0.5-0.3-0.8s0.2-0.6,0.5-0.8l21.3-13.6
				c0.2-0.1,0.4-0.2,0.5-0.2c0.2,0,0.3,0,0.5,0.1c0.3,0.2,0.5,0.5,0.5,0.9v31.9c0,0.4-0.2,0.7-0.6,0.9
				C78.4,64.2,78.2,64.2,78.1,64.2z"/>
			<path class="st4" d="M78.1,31.3v31.9L56.8,45L78.1,31.3 M78.1,29.3c-0.4,0-0.7,0.1-1.1,0.3L55.7,43.3c-0.5,0.3-0.9,0.9-0.9,1.5
				c0,0.6,0.2,1.2,0.7,1.7l21.3,18.3c0.4,0.3,0.8,0.5,1.3,0.5c0.3,0,0.6-0.1,0.8-0.2c0.7-0.3,1.2-1,1.2-1.8V31.3
				c0-0.7-0.4-1.4-1-1.8C78.7,29.4,78.4,29.3,78.1,29.3L78.1,29.3z"/>
		</g>
		<g>
			<path class="st6" d="M21.4,64.2c-0.4,0-0.8-0.3-0.9-0.7c-0.1-0.4,0-0.8,0.3-1.1l21.3-18.3c0.2-0.2,0.4-0.2,0.7-0.2
				c0.2,0,0.4,0.1,0.5,0.2l6.5,4.2l6.5-4.2c0.2-0.1,0.4-0.2,0.5-0.2c0.2,0,0.5,0.1,0.7,0.2l21.3,18.3c0.3,0.3,0.4,0.7,0.3,1.1
				c-0.1,0.4-0.5,0.7-0.9,0.7H21.4z"/>
			<path class="st4" d="M42.7,45l7,4.5l7-4.5l21.3,18.3H21.4L42.7,45 M42.7,43c-0.5,0-0.9,0.2-1.3,0.5L20.1,61.7
				c-0.6,0.5-0.9,1.4-0.6,2.2c0.3,0.8,1,1.3,1.9,1.3h56.7c0.8,0,1.6-0.5,1.9-1.3c0.3-0.8,0.1-1.7-0.6-2.2L58.1,43.4
				c-0.4-0.3-0.8-0.5-1.3-0.5c-0.4,0-0.7,0.1-1.1,0.3l-6,3.8l-6-3.8C43.4,43.1,43.1,43,42.7,43L42.7,43z"/>
		</g>
	</g>
</g>
</svg>
