<?xml version="1.0" encoding="utf-8"?>
<!-- Generator: Adobe Illustrator 22.0.1, SVG Export Plug-In . SVG Version: 6.00 Build 0)  -->
<svg version="1.1" id="Layer_1" xmlns="http://www.w3.org/2000/svg" xmlns:xlink="http://www.w3.org/1999/xlink" x="0px" y="0px"
	 viewBox="0 0 100 100" style="enable-background:new 0 0 100 100;" xml:space="preserve">
<style type="text/css">
	.st0{fill:#0D5E8C;}
	.st1{fill:#0071BC;}
	.st2{fill:#FFFFFF;}
	.st3{fill:#2B2B2B;}
	.st4{fill:#3498DB;}
	.st5{fill-rule:evenodd;clip-rule:evenodd;fill:#3498DB;}
	.st6{fill-rule:evenodd;clip-rule:evenodd;fill:#FFFFFF;}
	.st7{fill:#ECF0F1;}
	.st8{fill-rule:evenodd;clip-rule:evenodd;fill:#ECF0F1;}
	.st9{fill-rule:evenodd;clip-rule:evenodd;fill:#F5F7F8;}
	.st10{fill-rule:evenodd;clip-rule:evenodd;fill:#2980B9;}
	.st11{fill:#5B9500;}
	.st12{fill:#12935D;}
	.st13{fill:#6BBD8B;}
	.st14{fill:#049FA4;}
	.st15{fill:#3BB5F0;}
	.st16{fill:#78C8FF;}
	.st17{fill:#3EB8FF;}
	.st18{fill:#184223;}
	.st19{fill:#022906;}
	.st20{fill:#076E5E;}
	.st21{fill:#0A413C;}
	.st22{fill:#C2D400;}
	.st23{fill:#8B9504;}
	.st24{fill:#0096E5;}
	.st25{fill:#008EDA;}
	.st26{fill:#136050;}
	.st27{fill:#7BBC00;}
	.st28{fill:#95BB00;}
	.st29{fill:#3A9B92;}
	.st30{fill:#00867E;}
	.st31{fill:none;stroke:#000000;stroke-width:1.7961;stroke-miterlimit:10;}
	.st32{fill:none;}
	.st33{fill:#34495E;}
	.st34{font-family:'Prompt-Light';}
	.st35{font-size:12px;}
	.st36{fill:#99A3A8;}
	.st37{fill:none;stroke:#000000;stroke-linecap:square;stroke-linejoin:round;stroke-miterlimit:10;stroke-dasharray:0,2;}
	.st38{fill:none;stroke:#F15354;stroke-width:5;stroke-miterlimit:10;}
	.st39{fill:#DEE1E3;}
	.st40{fill:#F15354;}
	.st41{fill:none;stroke:#F15354;stroke-width:7;stroke-miterlimit:10;}
	.st42{fill-rule:evenodd;clip-rule:evenodd;fill:#DEE1E3;}
	.st43{fill-rule:evenodd;clip-rule:evenodd;fill:#FFFFFF;stroke:#ECF0F1;stroke-miterlimit:10;}
	.st44{fill:none;stroke:#2B2B2B;stroke-width:2.6612;stroke-miterlimit:10;}
	.st45{fill:#2C3E50;}
	.st46{opacity:0.3;fill:#DEE1E3;}
	.st47{fill:none;stroke:#DEE1E3;stroke-width:2.6711;stroke-miterlimit:10;}
	.st48{fill:none;stroke:#BDC3C7;stroke-width:2;stroke-miterlimit:10;}
	.st49{fill:none;stroke:#E67E22;stroke-width:4;stroke-miterlimit:10;}
	.st50{fill:#BDC3C7;}
	.st51{fill:#E67E22;}
</style>
<rect y="75.5" class="st32" width="100" height="24.5"/>
<circle class="st4" cx="28.5" cy="61.5" r="2.5"/>
<circle class="st4" cx="39.5" cy="61.5" r="2.5"/>
<circle class="st4" cx="60.9" cy="61.5" r="2.5"/>
<circle class="st4" cx="50" cy="61.5" r="2.5"/>
<circle class="st4" cx="71.8" cy="61.5" r="2.5"/>
<rect x="46.6" y="18.7" transform="matrix(-1.836970e-16 1 -1 -1.836970e-16 85.5946 -14.4054)" class="st33" width="6.8" height="33.7"/>
<rect x="46.6" y="9.6" transform="matrix(-1.836970e-16 1 -1 -1.836970e-16 76.4865 -23.5135)" class="st33" width="6.8" height="33.7"/>
<rect x="46.6" y="0.5" transform="matrix(-1.836970e-16 1 -1 -1.836970e-16 67.3784 -32.6216)" class="st33" width="6.8" height="33.7"/>
<g>
	<path class="st36" d="M49.5,57.5v-1h1v1C49.5,57.5,50.5,57.5,49.5,57.5z"/>
	<path class="st36" d="M49.5,55.5v-1h1v1C49.5,55.5,50.5,55.5,49.5,55.5z"/>
	<path class="st36" d="M49.5,53.5v-1h1v1C49.5,53.5,50.5,53.5,49.5,53.5z"/>
	<path class="st36" d="M49.5,51.5v-1h1v1C49.5,51.5,50.5,51.5,49.5,51.5z"/>
	<path class="st36" d="M49.5,49.5v-1h1v1C49.5,49.5,50.5,49.5,49.5,49.5z"/>
	<path class="st36" d="M49.5,47.5v-1h1v1C49.5,47.5,50.5,47.5,49.5,47.5z"/>
	<path class="st36" d="M49.5,45.5v-1h1v1C49.5,45.5,50.5,45.5,49.5,45.5z"/>
	<path class="st36" d="M49.5,43.5v-1h1v1C49.5,43.5,50.5,43.5,49.5,43.5z"/>
</g>
<path class="st36" d="M28,57.1v-1h1v1C28,57.1,29,57.1,28,57.1z"/>
<path class="st36" d="M28,55.2v-1h1v1C28,55.2,29,55.2,28,55.2z"/>
<path class="st36" d="M28,53.2v-1h1v1C28,53.2,29,53.2,28,53.2z"/>
<path class="st36" d="M28,51.3v-1h1v1C28,51.3,29,51.3,28,51.3z"/>
<path class="st36" d="M28,49.4v-1h1v1C28,49.4,29,49.4,28,49.4z"/>
<path class="st36" d="M36,47.5v-1h1v1C36,47.5,37,47.5,36,47.5z"/>
<path class="st36" d="M34,47.5v-1h1v1C34,47.5,35,47.5,34,47.5z"/>
<path class="st36" d="M32,47.5v-1h1v1C32,47.5,33,47.5,32,47.5z"/>
<path class="st36" d="M30,47.5v-1h1v1C30,47.5,31,47.5,30,47.5z"/>
<path class="st36" d="M28,47.5v-1h1v1C28,47.5,29,47.5,28,47.5z"/>
<path class="st36" d="M36,45.5v-1h1v1C36,45.5,37,45.5,36,45.5z"/>
<path class="st36" d="M36,43.5v-1h1v1C36,43.5,37,43.5,36,43.5z"/>
<path class="st36" d="M39,57.2v-1h1v1C39,57.2,40,57.2,39,57.2z"/>
<path class="st36" d="M39,55.3v-1h1v1C39,55.3,40,55.3,39,55.3z"/>
<path class="st36" d="M43,53.5v-1h1v1C43,53.5,44,53.5,43,53.5z"/>
<path class="st36" d="M41,53.5v-1h1v1C41,53.5,42,53.5,41,53.5z"/>
<path class="st36" d="M39,53.5v-1h1v1C39,53.5,40,53.5,39,53.5z"/>
<path class="st36" d="M43,51.5v-1h1v1C43,51.5,44,51.5,43,51.5z"/>
<path class="st36" d="M43,49.5v-1h1v1C43,49.5,44,49.5,43,49.5z"/>
<path class="st36" d="M43,47.5v-1h1v1C43,47.5,44,47.5,43,47.5z"/>
<path class="st36" d="M43,45.5v-1h1v1C43,45.5,44,45.5,43,45.5z"/>
<path class="st36" d="M43,43.5v-1h1v1C43,43.5,44,43.5,43,43.5z"/>
<path class="st36" d="M71.3,57.1v-1h1v1C71.3,57.1,72.3,57.1,71.3,57.1z"/>
<path class="st36" d="M71.3,55.2v-1h1v1C71.3,55.2,72.3,55.2,71.3,55.2z"/>
<path class="st36" d="M71.3,53.2v-1h1v1C71.3,53.2,72.3,53.2,71.3,53.2z"/>
<path class="st36" d="M71.3,51.3v-1h1v1C71.3,51.3,72.3,51.3,71.3,51.3z"/>
<path class="st36" d="M71.3,49.4v-1h1v1C71.3,49.4,72.3,49.4,71.3,49.4z"/>
<path class="st36" d="M63.3,47.5v-1h1v1C63.3,47.5,64.3,47.5,63.3,47.5z"/>
<path class="st36" d="M65.3,47.5v-1h1v1C65.3,47.5,66.3,47.5,65.3,47.5z"/>
<path class="st36" d="M67.3,47.5v-1h1v1C67.3,47.5,68.3,47.5,67.3,47.5z"/>
<path class="st36" d="M69.3,47.5v-1h1v1C69.3,47.5,70.3,47.5,69.3,47.5z"/>
<path class="st36" d="M71.3,47.5v-1h1v1C71.3,47.5,72.3,47.5,71.3,47.5z"/>
<path class="st36" d="M63.3,45.5v-1h1v1C63.3,45.5,64.3,45.5,63.3,45.5z"/>
<path class="st36" d="M63.3,43.5v-1h1v1C63.3,43.5,64.3,43.5,63.3,43.5z"/>
<path class="st36" d="M60.3,57.2v-1h1v1C60.3,57.2,61.3,57.2,60.3,57.2z"/>
<path class="st36" d="M60.3,55.3v-1h1v1C60.3,55.3,61.3,55.3,60.3,55.3z"/>
<path class="st36" d="M56.3,53.5v-1h1v1C56.3,53.5,57.3,53.5,56.3,53.5z"/>
<path class="st36" d="M58.3,53.5v-1h1v1C58.3,53.5,59.3,53.5,58.3,53.5z"/>
<path class="st36" d="M60.3,53.5v-1h1v1C60.3,53.5,61.3,53.5,60.3,53.5z"/>
<path class="st36" d="M56.3,51.5v-1h1v1C56.3,51.5,57.3,51.5,56.3,51.5z"/>
<path class="st36" d="M56.3,49.5v-1h1v1C56.3,49.5,57.3,49.5,56.3,49.5z"/>
<path class="st36" d="M56.3,47.5v-1h1v1C56.3,47.5,57.3,47.5,56.3,47.5z"/>
<path class="st36" d="M56.3,45.5v-1h1v1C56.3,45.5,57.3,45.5,56.3,45.5z"/>
<path class="st36" d="M56.3,43.5v-1h1v1C56.3,43.5,57.3,43.5,56.3,43.5z"/>
</svg>
